<mxfile>
    <diagram id="6QmieSB77hgsPmFDkzmN" name="Page-1">
        <mxGraphModel dx="882" dy="624" grid="1" gridSize="10" guides="1" tooltips="1" connect="1" arrows="1" fold="1" page="1" pageScale="1" pageWidth="827" pageHeight="1169" math="0" shadow="0">
            <root>
                <mxCell id="0"/>
                <mxCell id="1" parent="0"/>
                <mxCell id="2" value="Admin" style="swimlane;" vertex="1" parent="1">
                    <mxGeometry x="280" y="160" width="120" height="160" as="geometry"/>
                </mxCell>
                <mxCell id="17" value="ID&lt;br&gt;Full Name&lt;br&gt;Email&lt;br&gt;Password&lt;br&gt;" style="text;html=1;align=center;verticalAlign=middle;resizable=0;points=[];autosize=1;" vertex="1" parent="2">
                    <mxGeometry x="25" y="50" width="70" height="60" as="geometry"/>
                </mxCell>
                <mxCell id="3" value="Users" style="swimlane;" vertex="1" parent="1">
                    <mxGeometry x="80" y="400" width="120" height="160" as="geometry"/>
                </mxCell>
                <mxCell id="11" value="CIN ( PK )&lt;br&gt;Full Name&lt;br&gt;Password&lt;br&gt;Adress&lt;br&gt;Tel" style="text;html=1;align=center;verticalAlign=middle;resizable=0;points=[];autosize=1;" vertex="1" parent="3">
                    <mxGeometry x="25" y="45" width="70" height="70" as="geometry"/>
                </mxCell>
                <mxCell id="4" value="Visiteur" style="swimlane;" vertex="1" parent="1">
                    <mxGeometry x="480" y="400" width="120" height="160" as="geometry"/>
                </mxCell>
                <mxCell id="9" value="ID&lt;br&gt;Name&lt;br&gt;Email&lt;br&gt;Password" style="text;html=1;align=center;verticalAlign=middle;resizable=0;points=[];autosize=1;" vertex="1" parent="4">
                    <mxGeometry x="25" y="50" width="70" height="60" as="geometry"/>
                </mxCell>
                <mxCell id="5" value="Note" style="swimlane;" vertex="1" parent="1">
                    <mxGeometry x="280" y="400" width="120" height="160" as="geometry"/>
                </mxCell>
                <mxCell id="10" value="ID_Visiteur ( FK )&lt;br&gt;CIN_User ( FK )&amp;nbsp;" style="text;html=1;align=center;verticalAlign=middle;resizable=0;points=[];autosize=1;" vertex="1" parent="5">
                    <mxGeometry x="5" y="65" width="110" height="30" as="geometry"/>
                </mxCell>
                <mxCell id="6" value="Category" style="swimlane;startSize=23;" vertex="1" parent="1">
                    <mxGeometry x="480" y="640" width="120" height="160" as="geometry"/>
                </mxCell>
                <mxCell id="8" value="ID&lt;br&gt;Name&lt;br&gt;Avatar" style="text;html=1;align=center;verticalAlign=middle;resizable=0;points=[];autosize=1;" vertex="1" parent="6">
                    <mxGeometry x="35" y="55" width="50" height="50" as="geometry"/>
                </mxCell>
                <mxCell id="7" value="FKC" style="swimlane;startSize=23;" vertex="1" parent="1">
                    <mxGeometry x="280" y="640" width="120" height="160" as="geometry"/>
                </mxCell>
                <mxCell id="14" value="ID_category ( FK )&lt;br&gt;ID_User ( FK )" style="text;html=1;align=center;verticalAlign=middle;resizable=0;points=[];autosize=1;" vertex="1" parent="7">
                    <mxGeometry x="5" y="65" width="110" height="30" as="geometry"/>
                </mxCell>
                <mxCell id="12" value="" style="endArrow=classic;html=1;" edge="1" parent="1">
                    <mxGeometry width="50" height="50" relative="1" as="geometry">
                        <mxPoint x="200" y="490" as="sourcePoint"/>
                        <mxPoint x="280" y="490" as="targetPoint"/>
                    </mxGeometry>
                </mxCell>
                <mxCell id="13" value="" style="endArrow=classic;html=1;" edge="1" parent="1">
                    <mxGeometry width="50" height="50" relative="1" as="geometry">
                        <mxPoint x="480" y="490" as="sourcePoint"/>
                        <mxPoint x="400" y="490" as="targetPoint"/>
                    </mxGeometry>
                </mxCell>
                <mxCell id="15" value="" style="endArrow=classic;html=1;exitX=0.5;exitY=1;exitDx=0;exitDy=0;entryX=0;entryY=0.5;entryDx=0;entryDy=0;" edge="1" parent="1" source="3" target="7">
                    <mxGeometry width="50" height="50" relative="1" as="geometry">
                        <mxPoint x="160" y="650" as="sourcePoint"/>
                        <mxPoint x="280" y="690" as="targetPoint"/>
                    </mxGeometry>
                </mxCell>
                <mxCell id="16" value="" style="endArrow=classic;html=1;" edge="1" parent="1">
                    <mxGeometry width="50" height="50" relative="1" as="geometry">
                        <mxPoint x="480" y="710" as="sourcePoint"/>
                        <mxPoint x="400" y="710" as="targetPoint"/>
                    </mxGeometry>
                </mxCell>
            </root>
        </mxGraphModel>
    </diagram>
</mxfile>